<svg xmlns="http://www.w3.org/2000/svg" width="1440" height="957" style="background:#fff" viewBox="0 0 1440 957">
  <g fill="none" fill-rule="evenodd">
    <path fill="#FFF" fill-rule="nonzero" d="M1.18550139,28.9039649 C0.615051046,28.7060768 0.210546384,28.2556876 0.0833683272,27.6768144 C0.0421809102,27.4893398 0.0260351661,26.8851486 0.0382501722,25.9884417 C0.0556360763,24.7120878 0.0675711931,24.5697165 0.177058426,24.3326369 C0.352184022,23.9534268 0.619410492,23.6772807 0.985593985,23.4971141 L1.30880924,23.3380879 L18.5174488,23.3380879 L35.7260895,23.3380879 L36.0493048,23.4971141 C36.415491,23.6772807 36.6827148,23.9534268 36.8578435,24.3326369 C36.9704501,24.5764791 36.9776271,24.6859226 36.9776271,26.1594322 C36.9776271,27.6329418 36.9704501,27.7423854 36.8578435,27.9862275 C36.6827148,28.3654371 36.415491,28.6415837 36.0493048,28.8217503 L35.7260895,28.9807766 L18.6027809,28.9933596 C2.28097764,29.0053541 1.46571336,29.0011696 1.18550139,28.9039649 Z M1.18550139,17.2766064 C0.615051046,17.0787183 0.210546384,16.6283292 0.0833683272,16.0494559 C0.0421809102,15.8619814 0.0260351661,15.2577901 0.0382501722,14.3610832 C0.0556360763,13.0847293 0.0675711931,12.942358 0.177058426,12.7052785 C0.352184022,12.3260683 0.619410492,12.0499222 0.985593985,11.8697556 L1.30880924,11.7107294 L18.5174488,11.7107294 L35.7260895,11.7107294 L36.0493048,11.8697556 C36.415491,12.0499222 36.6827148,12.3260683 36.8578435,12.7052785 C36.9704501,12.9491206 36.9776271,13.0585641 36.9776271,14.5320737 C36.9776271,16.0055833 36.9704501,16.1150269 36.8578435,16.358869 C36.6827148,16.7380786 36.415491,17.0142252 36.0493048,17.1943918 L35.7260895,17.3534181 L18.6027809,17.3660011 C2.28097764,17.3779956 1.46571336,17.3738111 1.18550139,17.2766064 Z M1.18550139,5.59225102 C0.615051046,5.39436296 0.210546384,4.94397381 0.0833683272,4.36510052 C0.0421809102,4.17762601 0.0260351661,3.57343472 0.0382501722,2.67672781 C0.0556360763,1.40037398 0.0675711931,1.25800267 0.177058426,1.02092311 C0.352184022,0.641713003 0.619410492,0.365566887 0.985593985,0.185400283 L1.30880924,0.0263740409 L18.5174488,0.0263740409 L35.7260895,0.0263740409 L36.0493048,0.185400283 C36.415491,0.365566887 36.6827148,0.641713003 36.8578435,1.02092311 C36.9704501,1.26476524 36.9776271,1.37420877 36.9776271,2.84771838 C36.9776271,4.32122799 36.9704501,4.43067153 36.8578435,4.67451365 C36.6827148,5.0537233 36.415491,5.32986987 36.0493048,5.51003648 L35.7260895,5.66906272 L18.6027809,5.6816458 C2.28097764,5.69364022 1.46571336,5.68945574 1.18550139,5.59225102 Z" transform="translate(1368 43)"/>
    <rect width="180" height="957" x="182" fill="#FFD301"/>
    <rect width="180" height="957" x="2" fill="#FFF"/>
    <rect width="180" height="957" x="362" fill="#01E9FF"/>
    <rect width="180" height="957" x="542" fill="#02FE01"/>
    <rect width="180" height="957" x="722" fill="#FE02FF"/>
    <rect width="180" height="957" x="902" fill="#FE0000"/>
    <rect width="180" height="957" x="1082" fill="#0100FE"/>
    <rect width="180" height="957" x="1262" fill="#000"/>
  </g>
</svg>
